<?xml version="1.0" encoding="UTF-8" standalone="no"?><!DOCTYPE svg PUBLIC "-//W3C//DTD SVG 1.1//EN" "http://www.w3.org/Graphics/SVG/1.1/DTD/svg11.dtd"><svg xmlns="http://www.w3.org/2000/svg" xmlns:xlink="http://www.w3.org/1999/xlink" viewBox="0 0 50 50" width="50px" height="50px"><g><path d="M33,41.929l-18,0.071l0,-2l18,0l0,1.929Z" style="fill-rule:nonzero;"/><path d="M41.189,20.626l-3.329,-18.208l2.482,-0.456l2.829,18.362l-1.982,0.302Z" style="fill-rule:nonzero;"/><path d="M33,37l-18.1,-1.661l0.273,-1.962l18.028,1.661l-0.201,1.962Z" style="fill-rule:nonzero;"/><path d="M33.362,31.896l-17.731,-4.496l0.533,-2.229l17.836,4.753l-0.638,1.972Z" style="fill-rule:nonzero;"/><path d="M34.5,27l-15.387,-9.299l1.239,-2.194l15.312,9.499l-1.164,1.994Z" style="fill-rule:nonzero;"/><path d="M37.302,23.038l-10.201,-14.958l1.959,-1.415l9.987,15.133l-1.745,1.24Z" style="fill-rule:nonzero;"/><path d="M37,29l0,17l-26,0l0,-17l-2,0l0,18.985l29.903,0.015l0,-0.015c0.03,0 0.097,-18.985 0.097,-18.985l-2,0Z" style="fill-rule:nonzero;"/></g></svg>